<?xml version="1.0" encoding="utf-8"?>
<!-- Generator: Adobe Illustrator 18.1.1, SVG Export Plug-In . SVG Version: 6.00 Build 0)  -->
<!DOCTYPE svg PUBLIC "-//W3C//DTD SVG 1.1//EN" "http://www.w3.org/Graphics/SVG/1.1/DTD/svg11.dtd">
<svg version="1.1" id="Layer_1" xmlns="http://www.w3.org/2000/svg" xmlns:xlink="http://www.w3.org/1999/xlink" x="0px" y="0px"
	 width="100px" height="100px" viewBox="-429 231 100 100" style="enable-background:new -429 231 100 100;" xml:space="preserve">
<style type="text/css">
	.st0{fill:#512200;stroke:#512200;stroke-miterlimit:10;}
</style>
<g>
	<path class="st0" d="M-357.8,276.2c0.7,2.6,1.1,5.5,1.1,8.4c0,0.3,0,0.7,0,1l3.4,1.3l2.8-2.4l2.2,2.6l-4.3,3.5l-4.4-1.8
		c-0.5,3.9-1.7,7.6-3.4,10.7l0.6-0.8l3.3,1.9l3.2-1.9l1.8,2.9l-4.7,2.9l-5.2-3.1c-4.1,6.3-10.4,10.4-17.5,10.4
		c-7.1,0-13.4-4.1-17.5-10.4l-5.1,3l-4.7-2.9l1.8-2.9l3.2,1.9l3.3-1.9l0.2,0.3c-1.6-3-2.7-6.5-3.1-10.2l-4.3,1.7l-4.3-3.5l2.2-2.6
		l2.8,2.4l3.3-1.3c0-0.4,0-0.7,0-1.1c0-2.9,0.4-5.7,1.1-8.4l-5.6-0.2l-2.4-4.9l3-1.5l1.6,3.3l3.8,0.2l0.1,1.1
		c2.3-6.8,6.8-12.3,12.4-15c0.1-2.1,1.8-3.8,4-3.8h9.3c2.2,0,4,1.8,4,4c0,0.1,0,0.2,0,0.3c5.3,2.9,9.5,8.3,11.6,14.9l0.1-1.5
		l3.8-0.2l1.6-3.3l3,1.5l-2.4,4.9L-357.8,276.2z"/>
	<polygon class="st0" points="-367.8,251.9 -368.2,253.1 -368.9,253.4 -370.3,253.8 -371.5,254.5 -373.2,255.4 -373.2,254.5 
		-371.3,253.2 -369.9,252.8 -368.7,251.9 -368,250.6 -366.7,250.1 -367,251.4 	"/>
	<polygon class="st0" points="-386.9,253.8 -388.3,253.4 -389,253.1 -389.4,251.9 -390.2,251.4 -390.5,250.1 -389.2,250.6 
		-388.5,251.9 -387.3,252.8 -385.9,253.2 -384,254.5 -384,255.4 -385.7,254.5 	"/>
</g>
</svg>
